<svg width="2404" height="2404" viewBox="0 0 2404 2404" fill="none" xmlns="http://www.w3.org/2000/svg">
  <!-- Body outline shadow (darker blue, rendered behind main) -->
  <path d="M259.679 1716C143.679 1467 260.367 1153.79 581.626 1070.2C902.886 986.605 1766.48 982.673 1882.89 1070.2M1882.89 1070.2C2028.4 1179.61 1550.29 1843.19 1342.41 1843.19C1194.92 1843.19 1274.58 913.746 1445.26 840.442C1502.37 815.913 1553.97 784.523 1602.81 756.357M1882.89 1070.2C1995.58 1151.53 2180.68 1273.5 2060.68 1609.5M1882.89 1070.2C1912.43 1016.07 1957.29 902.283 2217.68 969.022M1602.81 756.357C1699.91 700.352 1786.07 657.096 1882.89 705.87C2028.4 779.174 1312.87 1931.81 1022.94 1882.58C687.484 1825.61 1213.31 806.844 1602.81 756.357ZM1602.81 756.357C1436.87 1132.3 994.495 1843.19 683.776 1843.19C295.377 1843.19 1024.04 539.048 1400.4 551.083C1609.24 557.761 1479.53 917.086 1178.3 1217.34M1178.3 1217.34C936.673 1458.19 669.381 1637.95 539.358 1583.9C366.492 1512.03 453.093 966.993 733.179 756.357C1013.26 545.721 1433.22 550.493 1178.3 1217.34Z" stroke="#2833AC" stroke-width="185.994" stroke-linecap="square"/>
  <!-- Body outline main (primary blue, rendered on top) -->
  <path d="M209.179 1690.5C144.179 1430 212.367 1121.79 533.626 1038.2C854.886 954.605 1718.48 950.673 1834.89 1038.2M1834.89 1038.2C1980.4 1147.61 1502.29 1811.19 1294.41 1811.19C1146.92 1811.19 1226.58 881.746 1397.26 808.442C1454.37 783.913 1505.97 752.523 1554.81 724.357M1834.89 1038.2C1947.58 1119.53 2129.94 1283.6 1996.18 1576M1834.89 1038.2C1864.43 984.068 1909.29 870.283 2169.68 937.022M1554.81 724.357C1651.91 668.352 1738.07 625.096 1834.89 673.87C1980.4 747.174 1264.87 1899.81 974.942 1850.58C639.484 1793.61 1165.31 774.844 1554.81 724.357ZM1554.81 724.357C1388.87 1100.3 946.495 1811.19 635.776 1811.19C247.377 1811.19 976.037 507.048 1352.4 519.083C1561.24 525.761 1431.53 885.086 1130.3 1185.34M1130.3 1185.34C888.673 1426.19 621.381 1605.95 491.358 1551.9C318.492 1480.03 413.093 934.993 693.179 724.357C973.265 513.721 1385.22 518.493 1130.3 1185.34Z" stroke="#3949F5" stroke-width="185.994" stroke-linecap="square"/>
</svg>
